<svg xmlns="http://www.w3.org/2000/svg" viewBox="0 0 100 100" id="sun">
  <path d="m22.21,56.35c.6,2.62-11.65,9.73-10.51,12.1,1.16,2.41,14.36-2.75,16.01-.68,1.66,2.08-6.29,13.8-4.22,15.46,2.07,1.65,11.73-8.7,14.14-7.54,2.37,1.14.29,15.16,2.91,15.76,2.54.58,6.74-12.94,9.45-12.94s6.91,13.52,9.45,12.94c2.62-.6.54-14.61,2.91-15.76,2.41-1.16,12.07,9.19,14.14,7.54,2.08-1.66-5.87-13.38-4.22-15.46,1.65-2.07,14.85,3.09,16.01.68,1.14-2.37-11.1-9.47-10.5-12.1.58-2.54,14.71-3.63,14.71-6.35s-14.13-3.81-14.71-6.35c-.6-2.62,11.65-9.73,10.51-12.1-1.16-2.41-14.36,2.75-16.01.68-1.66-2.08,6.29-13.8,4.22-15.46-2.07-1.65-11.73,8.7-14.14,7.54-2.37-1.14-.29-15.16-2.91-15.76-2.54-.58-6.74,12.94-9.45,12.94s-6.91-13.52-9.45-12.94c-2.62.6-.54,14.61-2.91,15.76-2.41,1.16-12.07-9.19-14.14-7.54-2.08,1.66,5.87,13.38,4.22,15.46-1.65,2.07-14.85-3.09-16.01-.68-1.14,2.37,11.1,9.47,10.5,12.1-.58,2.54-14.71,3.63-14.71,6.35s14.13,3.81,14.71,6.35Zm27.79-30.61c13.38,0,24.26,10.88,24.26,24.26s-10.88,24.26-24.26,24.26-24.26-10.88-24.26-24.26,10.88-24.26,24.26-24.26Z"></path>
  <circle cx="50" cy="50" r="21.26"></circle>
</svg>
